<svg xmlns="http://www.w3.org/2000/svg" width="512" height="512" viewBox="0 0 512 512">
  <rect width="512" height="512" rx="96" fill="#0D0B0E"/>
  <g transform="translate(256,256) rotate(-45) translate(-100,-140)">
    <!-- Quill feather -->
    <path d="M100 0 C60 40, 20 120, 10 200 C10 200, 50 180, 80 140 C80 140, 100 180, 90 220 L110 220 C120 180, 120 140, 120 140 C150 180, 190 200, 190 200 C180 120, 140 40, 100 0Z" fill="#C4956A" opacity="0.9"/>
    <!-- Quill stem -->
    <line x1="100" y1="160" x2="100" y2="300" stroke="#C4956A" stroke-width="4" stroke-linecap="round"/>
    <!-- Nib -->
    <path d="M96 280 L100 310 L104 280" fill="#C4956A"/>
    <!-- Ink dot -->
    <circle cx="100" cy="316" r="6" fill="#C4956A" opacity="0.6"/>
  </g>
</svg>
